<svg width="1040" height="200" viewBox="0 0 1040 200" fill="none" xmlns="http://www.w3.org/2000/svg">
<g clip-path="url(#clip0_93_134)">
<path d="M363.493 182.56V182.489C367.575 181.294 369.264 178.903 369.264 175.387C369.264 170.886 365.111 167.229 356.385 167.229H341.747V199.508H358.074C367.434 199.508 371.656 195.71 371.656 190.295C371.516 186.568 369.123 183.685 363.493 182.56ZM347.588 171.73H356.385C361.593 171.73 363.634 173.418 363.634 176.16C363.634 179.114 361.311 180.802 356.385 180.802H347.588V171.73ZM357.581 195.218H347.588V185.021H357.511C363.211 185.021 365.604 186.779 365.604 189.944C365.604 193.39 362.789 195.218 357.581 195.218Z" fill="white"/>
<path d="M388.758 185.232H405.155V181.013H388.758V171.941H409.871V167.229H382.705V199.578H410.574V195.007H388.758V185.232Z" fill="white"/>
<path d="M433.517 167.229L417.119 199.508H423.383L426.972 191.983H446.185L449.844 199.508H456.108L439.71 167.229H433.517ZM429.013 187.834L436.473 171.941H436.543L444.144 187.834H429.013Z" fill="white"/>
<path d="M477.995 195.71C471.731 195.71 468.213 191.983 468.213 186.709V180.309C468.213 174.613 471.591 171.238 477.854 171.238C482.429 171.238 485.525 173.136 486.792 175.527L490.874 173.699C489.114 170.042 483.695 166.807 477.291 166.807C468.001 166.807 462.09 172.011 462.09 180.38V186.779C462.09 194.655 468.353 200 477.502 200C484.399 200 489.114 197.468 491.085 192.968L486.792 191.35C485.314 194.234 482.64 195.71 477.995 195.71Z" fill="white"/>
<path d="M526.554 181.013H507.764V167.229H501.782V199.578H507.764V185.724H526.554V199.578H532.536V167.229H526.554V181.013Z" fill="white"/>
<path d="M579.618 195.71C573.354 195.71 569.836 191.983 569.836 186.709V180.309C569.836 174.613 573.214 171.238 579.477 171.238C584.052 171.238 587.148 173.136 588.415 175.527L592.497 173.699C590.737 170.042 585.318 166.807 578.914 166.807C569.624 166.807 563.713 172.011 563.713 180.38V186.779C563.713 194.655 569.976 200 579.125 200C586.022 200 590.737 197.468 592.708 192.968L588.415 191.35C586.937 194.234 584.263 195.71 579.618 195.71Z" fill="white"/>
<path d="M609.246 167.229H603.405V199.578H628.037V194.866H609.246V167.229Z" fill="white"/>
<path d="M662.732 186.639C662.732 192.405 659.002 195.288 652.457 195.288C647.038 195.288 642.253 192.968 642.253 186.639V167.229H636.2V186.568C636.2 194.655 642.253 200 652.457 200C662.873 200 668.714 194.585 668.714 186.357V167.229H662.662V186.639H662.732Z" fill="white"/>
<path d="M703.339 182.56V182.489C707.421 181.294 709.11 178.903 709.11 175.387C709.11 170.886 704.958 167.229 696.231 167.229H681.593V199.508H697.92C707.28 199.508 711.503 195.71 711.503 190.295C711.362 186.568 708.969 183.685 703.339 182.56ZM687.434 171.73H696.231C701.439 171.73 703.48 173.418 703.48 176.16C703.48 179.114 701.158 180.802 696.231 180.802H687.434V171.73ZM697.428 195.218H687.434V185.021H697.357C703.058 185.021 705.451 186.779 705.451 189.944C705.38 193.39 702.635 195.218 697.428 195.218Z" fill="white"/>
<path d="M236.745 56.8917C235.619 50 232.03 44.7257 225.837 41.2799C207.61 31.1533 187.412 37.3418 169.184 43.6006C161.372 46.2728 153.772 49.2968 146.171 52.4613V0.140636H132.729V2.32066C132.729 16.1041 132.729 38.7482 132.729 58.1575C116.473 64.9086 100.216 71.308 82.9031 74.6132C76.8507 75.7384 70.8688 76.4416 64.8868 76.5119V0.0703125H51.5153V75.5977C41.2404 74.0506 30.4728 70.5344 22.7315 63.4318C14.2863 55.6259 10.2749 41.7018 16.3272 31.2939C17.2421 29.6765 18.7904 28.9733 20.6906 29.0436C21.1128 29.0436 21.8166 28.8326 22.0277 28.5513C22.45 27.8481 21.7462 27.5668 21.2536 27.2152C17.9459 25.1758 14.4975 24.8945 10.9083 26.301C-3.72996 31.9269 -1.33717 51.1252 4.71518 62.2363C16.1865 83.1927 42.3664 88.3966 64.6053 87.2011C64.6757 87.2011 64.8164 87.2011 64.8868 87.2011C65.0979 87.2011 65.2387 87.2011 65.4498 87.1308C66.3647 87.0605 67.2796 86.9902 68.1241 86.9198C68.6167 86.8495 69.1094 86.8495 69.602 86.7792C69.8131 86.7792 69.9539 86.7089 70.165 86.7089C80.2992 85.654 90.5741 83.4036 100.075 79.9578C111.124 75.9494 121.891 71.2377 132.589 66.3854C132.589 67.5105 132.589 68.6357 132.589 69.6906C132.589 69.6906 132.589 69.6906 132.659 69.6202V116.385H146.03V60.1266C154.405 56.2588 162.71 52.5316 171.225 49.0858C178.615 46.0619 186.004 43.1083 193.816 41.4205C204.654 39.0999 216.547 39.0999 221.614 50.9142C223.022 54.2194 223.585 57.8059 223.796 61.3924C223.937 64.135 223.937 66.8073 223.233 69.4796C222.529 72.2222 220.77 73.8397 217.955 74.2616C217.04 74.4022 216.125 74.4726 215.21 74.3319C213.31 74.0506 211.41 73.8397 209.58 73.2771C206.202 72.2222 202.965 70.8861 199.657 69.7609C194.449 67.9325 189.171 66.948 183.611 67.8622C176.363 69.0577 170.662 72.6442 166.721 78.9029C162.71 85.2321 162.076 92.1238 163.765 99.2264C165.736 107.736 170.873 113.502 179.248 116.104C188.749 118.987 197.827 117.581 206.202 112.377C213.943 107.595 219.151 100.633 222.881 92.4754C223.092 91.9831 223.374 91.4908 223.585 90.9986L223.867 91.0689V117.37H237.379V115.331C237.379 98.7342 237.379 82.1378 237.379 65.5415C237.379 62.6582 237.168 59.775 236.745 56.8917ZM221.474 87.6231C219.503 93.7412 216.618 99.3671 211.973 103.938C206.835 108.931 200.713 111.814 193.464 111.603C184.245 111.322 177.559 104.993 176.644 95.8509C176.151 90.647 176.926 85.7243 179.811 81.2939C182.978 76.4416 187.552 73.9803 193.253 73.6287C197.264 73.4177 201.065 74.3319 204.935 75.1758C207.68 75.8087 210.495 76.3713 213.24 76.8636C216.97 77.4965 220.488 77.0042 223.867 74.4726C223.585 79.1139 222.74 83.4036 221.474 87.6231Z" fill="white"/>
<path d="M51.4449 93.0381V116.526H64.8868V93.2491C60.4531 93.46 55.949 93.46 51.4449 93.0381Z" fill="white"/>
<path d="M404.452 88.045C405.859 82.9817 406.493 77.8481 406.704 72.6442C406.985 65.2602 405.93 58.1575 402.763 51.4065C399.948 45.4993 395.795 40.8579 389.884 38.045C382.494 34.5991 374.753 34.3882 367.012 36.7089C359.622 38.9592 353.288 43.038 347.799 48.4529C347.166 49.0155 346.603 49.6484 345.969 50.211C345.828 50.1406 345.758 50.1406 345.617 50.0703V0.0703125H332.175V116.596C332.668 116.596 333.02 116.667 333.372 116.667C343.295 116.667 353.148 116.737 363.071 116.667C367.434 116.596 371.727 116.315 376.02 115.331C382.635 113.854 388.617 111.041 393.614 106.399C399.103 101.336 402.411 95.0773 404.452 88.045ZM392.699 80.3797C391.995 85.9353 390.799 91.2799 388.336 96.3432C385.591 102.039 381.72 106.751 376.09 109.916C372.431 111.955 368.56 113.15 364.408 113.502C358.707 114.065 352.936 113.854 347.306 112.799C346.884 112.729 346.391 112.588 345.758 112.447V110.619C345.758 93.6709 345.758 76.7932 345.758 59.8453C345.758 58.7201 346.04 57.7356 346.603 56.751C350.684 50.1406 355.611 44.3741 362.93 41.2799C365.323 40.225 367.856 39.4515 370.39 39.0295C376.864 37.9044 382.002 40.436 386.084 45.429C389.743 49.9297 391.573 55.2743 392.558 60.9001C393.755 67.3699 393.473 73.8397 392.699 80.3797Z" fill="white"/>
<path d="M1026.08 0.0703125V16.9479C1026.08 22.6442 1026.08 23.2067 1026.08 28.8326C1026.08 34.3882 1026.15 39.9437 1026.01 45.6399C1024.11 44.0225 1022.64 42.4051 1020.81 41.1392C1012.57 35.3024 1003.35 34.2475 993.781 36.4276C984.703 38.5373 977.595 43.8818 972.669 51.6878C963.872 65.6118 962.886 80.3797 968.728 95.6399C970.839 101.266 974.358 106.048 979.143 109.705C987.87 116.315 997.652 117.932 1008.21 115.471C1013.56 114.205 1018.2 111.674 1022.42 108.158C1023.55 107.243 1024.68 106.259 1026.08 105.063V116.526H1039.46V0.0703125H1026.08ZM1025.24 98.8045C1022.57 103.024 1019.4 106.751 1015.25 109.705C1007.36 115.19 996.456 114.205 989.559 107.525C985.829 103.868 983.366 99.4374 981.677 94.6554C979.354 88.045 978.299 81.2236 978.721 74.1913C979.284 64.9789 981.325 56.2588 986.462 48.4529C989.488 43.8818 993.359 40.2953 998.849 38.9592C1005.46 37.3418 1011.66 37.9747 1017.08 42.6863C1020.88 45.9212 1023.76 49.8593 1025.73 54.4304C1026.01 55.0633 1026.01 55.7665 1026.01 56.4697C1026.01 63.0802 1026.01 69.6202 1026.01 76.2307C1026.01 82.8411 1026.01 89.3811 1026.01 95.9915C1026.08 96.9761 1025.87 97.8903 1025.24 98.8045Z" fill="white"/>
<path d="M948.882 51.2657C948.389 45.2882 945.715 40.6469 940.085 38.1856C937.903 37.2713 935.581 36.5681 933.329 36.2165C928.261 35.3023 923.194 35.3726 918.127 35.7946C910.104 36.4275 902.222 37.9043 894.481 40.2953C892.37 40.9282 890.329 41.6314 888.077 42.405V35.5836H874.776V116.596H888.147C888.147 115.893 888.147 115.26 888.147 114.557C888.147 93.5301 888.147 72.5034 888.077 51.4064C888.077 49.6483 888.71 48.7341 890.118 47.8199C896.522 43.8818 903.348 40.9985 910.738 39.3811C914.96 38.4668 919.183 37.8339 923.476 38.4668C929.387 39.3107 933.892 42.5456 935.088 48.8747C935.44 50.8438 935.581 52.8832 935.581 54.9225C935.581 74.6834 935.581 94.4443 935.581 114.205V116.385H949.093V114.416C949.093 94.4443 949.093 74.5428 949.093 54.5709C948.952 53.5864 948.952 52.3909 948.882 51.2657Z" fill="white"/>
<path d="M486.37 45.6399C476.869 36.9901 465.679 33.6849 453.152 36.4275C439.499 39.3811 430.139 47.9606 425.072 60.7594C420.638 72.0112 420.99 83.3333 426.339 94.2334C432.11 106.118 441.54 113.713 454.7 116.034C465.046 117.862 474.546 115.541 482.921 109.353C494.041 101.125 499.319 89.803 499.671 78.5513C499.671 64.4162 495.167 53.5864 486.37 45.6399ZM480.739 99.578C478.558 103.797 475.743 107.525 471.872 110.337C464.271 115.893 455.404 115.401 448.296 109.142C443.51 104.923 440.414 99.6483 438.443 93.6708C434.573 81.9971 434.502 70.3234 438.373 58.6497C440.344 52.7426 443.37 47.4683 448.085 43.3192C452.308 39.5921 457.163 37.623 462.864 38.2559C466.875 38.7482 470.253 40.5063 473.209 43.1082C477.995 47.2573 481.091 52.6019 483.132 58.5091C485.103 64.2053 486.018 70.0421 486.018 74.1912C486.158 84.3178 484.61 92.194 480.739 99.578Z" fill="white"/>
<path d="M750.421 116.596H757.177H763.652V0H750.421V116.596Z" fill="white"/>
<path d="M648.235 116.596V0H635.004V116.596H641.76H648.235Z" fill="white"/>
<path d="M576.944 49.0155V35.5838C576.381 35.5838 575.818 35.5134 575.325 35.5134C569.202 35.7244 563.08 35.865 556.957 36.287C551.045 36.7089 545.204 37.5528 539.504 39.0999C536.196 40.0141 532.888 41.1393 529.44 42.1942V35.5838H516.068V116.596H529.44V45.5697C530.636 45.0774 531.762 44.5148 532.888 44.1632C537.955 42.4051 543.234 42.1942 548.512 42.5458C555.409 43.038 562.094 44.5148 568.71 46.4839C571.454 47.3278 574.129 48.1717 576.944 49.0155Z" fill="white"/>
<path d="M269.4 35.5838H256.028V116.526H269.4V45.64C269.752 45.4291 270.033 45.2884 270.315 45.1478C274.045 43.3193 278.127 42.6161 282.208 42.4051C289.879 42.0535 297.339 43.46 304.658 45.3587C308.67 46.4136 312.611 47.6794 316.693 48.8749V35.4431C300.577 35.6541 284.672 36.2167 269.33 42.3348V35.5838H269.4Z" fill="white"/>
<path d="M723.396 73.91C719.033 71.5893 714.388 70.1125 709.603 68.9874C703.269 67.5106 696.865 66.1041 690.531 64.4163C687.223 63.5725 684.056 62.3066 681.241 60.2672C677.019 57.2433 675.963 52.602 678.496 48.031C680.467 44.4445 683.563 42.1941 687.223 40.5767C690.32 39.1702 693.627 38.6779 697.005 38.3263C702.917 37.6231 708.547 38.6076 713.896 41.1393C719.174 43.6709 723.045 47.82 726.141 52.6723C726.493 53.2349 726.986 53.8678 727.549 54.6414C729.167 50.3516 730.716 46.3432 732.264 42.2644C731.842 41.9831 731.56 41.7018 731.279 41.5612C728.182 40.2954 725.156 38.8186 721.919 37.9747C712.981 35.654 703.832 34.5992 694.542 35.865C687.856 36.7792 681.523 38.467 675.822 42.2644C671.881 44.9367 668.644 48.1013 666.884 52.602C664.632 58.5795 666.603 66.737 672.937 71.308C678.145 75.1055 684.197 76.8636 690.249 78.481C696.583 80.1688 702.987 81.4346 709.321 83.0521C713.051 84.0366 716.851 85.1618 720.018 87.4824C723.608 90.0844 726.141 93.4599 726.071 98.1013C726 103.657 722.904 107.384 718.259 110.056C714.67 112.166 710.658 113.01 706.576 113.502C703.55 113.854 700.524 113.994 697.498 113.432C687.293 111.463 679.693 105.626 673.781 97.3981C671.037 93.6006 669.136 89.4515 667.799 84.9508C667.659 84.3882 667.588 83.7553 666.744 83.8959C665.899 84.0366 665.969 84.6695 665.969 85.2321C665.969 91.1393 665.969 97.0464 665.969 102.954C665.969 103.516 666.251 104.29 666.603 104.641C670.333 107.595 674.274 110.197 678.637 112.025C684.056 114.276 689.616 115.612 695.457 116.245C703.621 117.089 711.644 116.596 719.315 113.643C727.056 110.619 732.405 105.345 733.882 96.9058C735.501 88.1154 732.827 78.9733 723.396 73.91Z" fill="white"/>
<path d="M854.015 56.9619C852.889 50.0702 849.3 44.796 843.106 41.3501C838.813 38.9591 834.169 37.834 829.453 37.201C823.683 36.4275 817.982 36.2868 812.282 36.6385C810.381 36.7088 808.481 36.8494 806.581 37.1307C804.54 37.412 802.499 37.7636 800.458 38.1856C799.895 38.3262 799.332 38.3965 798.769 38.5372C798.558 38.6075 798.277 38.6778 798.066 38.7482C797.573 38.8888 797.08 38.9591 796.658 39.0998C793.069 40.014 789.55 41.2095 786.102 42.7566C785.187 43.1785 785.187 43.6005 785.468 44.374C786.524 47.1167 787.509 49.8593 788.565 52.5316C788.917 53.5864 789.339 54.5709 789.972 56.0477C790.324 55.4852 790.465 55.2039 790.676 54.9226C798.981 44.3037 811.508 36.8494 825.442 39.9437C831.846 41.3501 836.561 44.9366 839.165 51.0548C840.573 54.36 841.136 57.9465 841.347 61.533C841.488 64.2756 841.488 66.9479 840.784 69.6202C840.08 72.3628 838.321 73.9802 835.506 74.4022C834.591 74.5428 833.676 74.6131 832.761 74.4725C830.861 74.1912 828.961 73.9802 827.131 73.4176C823.753 72.3628 820.516 71.0266 817.208 69.9015C812 68.0731 806.722 67.0885 801.162 68.0027C793.914 69.1982 788.213 72.7847 784.272 78.9732C780.261 85.3023 779.627 92.194 781.316 99.2967C783.287 107.806 788.424 113.572 796.869 116.174C806.37 119.058 815.449 117.651 823.823 112.447C831.565 107.665 836.773 100.703 840.503 92.5456C840.714 92.0534 840.995 91.5611 841.206 91.0688L841.488 91.1392V117.44H855V115.33C855 98.7341 855 82.1378 855 65.6117C854.718 62.6582 854.507 59.7749 854.015 56.9619ZM838.743 87.623C836.773 93.7411 833.887 99.367 829.242 103.938C824.105 108.931 817.982 111.814 810.733 111.603C801.584 111.322 794.899 104.993 793.913 95.8508C793.35 90.6469 794.195 85.7243 797.08 81.2939C800.247 76.4416 804.822 73.9802 810.522 73.6286C814.463 73.4176 818.334 74.2615 822.205 75.1054C824.949 75.7383 827.764 76.3009 830.509 76.7932C834.239 77.4261 837.758 76.9338 841.136 74.4022C840.854 79.1139 840.08 83.4036 838.743 87.623Z" fill="white"/>
</g>
<defs>
<clipPath id="clip0_93_134">
<rect width="1039.46" height="200" fill="white"/>
</clipPath>
</defs>
</svg>
